<svg width="622" height="551" viewBox="0 0 622 551" fill="none" xmlns="http://www.w3.org/2000/svg">
<path d="M415.54 550.048C529.133 550.048 621.219 541.07 621.219 529.995C621.219 518.92 529.133 509.942 415.54 509.942C301.947 509.942 209.861 518.92 209.861 529.995C209.861 541.07 301.947 550.048 415.54 550.048Z" fill="#F5F5F5"/>
<path d="M499.782 248.437L426.741 266.878C426.741 266.878 445.602 348.78 452.946 378.793C460.475 409.52 456.301 508.383 456.301 508.383H477.196L488.502 378.423L499.809 248.463L499.782 248.437Z" fill="#236B44"/>
<path d="M483.88 115.333C483.88 115.333 491.329 141.04 503.375 184.659C503.375 184.659 518.881 190.286 560.831 193.272L559.51 207.222C559.51 207.222 513.255 215.597 487.736 205.055C462.218 194.54 440.847 101.225 483.88 115.333Z" fill="#FFA689"/>
<path d="M524.323 205.24L546.196 230.577L581.541 184.553L567.25 156.971L524.323 205.24Z" fill="#5EB083"/>
<path d="M520.493 215.861L557.608 166.086L581.541 184.553L546.196 230.577L520.493 215.861Z" fill="#5EB083"/>
<path d="M575.386 194.778C575.228 194.012 574.25 193.721 573.59 194.144C572.322 194.963 570.79 196.865 567.197 196.971C563.605 197.076 558.902 194.567 557.344 196.205C557.344 196.205 549.577 206.112 557.45 215.914C557.45 215.914 581.277 222.123 575.386 194.778Z" fill="#FFA689"/>
<path d="M469.166 189.705C469.166 189.705 487.736 186.958 502.979 173.827C502.979 173.827 497.59 144.844 490.087 127.354C482.585 109.864 470.751 94.5668 451.519 105.954C432.288 117.341 437.889 143.444 469.166 189.705Z" fill="#5EB083"/>
<path d="M407.113 178.028C407.113 178.028 422.963 188.094 443.066 188.094C443.066 188.094 457.912 162.625 463.645 144.474C469.377 126.35 470.407 107.011 448.402 103.074C426.397 99.1375 413.585 122.572 407.087 178.028H407.113Z" fill="#5EB083"/>
<path d="M489.718 256.31C489.718 256.31 444.572 241.066 416.597 266.297C416.597 266.297 421.722 289.996 437.175 318.344C463.275 366.297 476.641 381.805 476.641 381.805C476.641 381.805 448.191 407.115 393.377 470.391C393.377 470.391 396.811 483.337 407.853 487.485C407.853 487.485 488.185 411.713 512.409 391.501C520.334 384.896 518.723 379.929 515.606 365.293C510.322 340.511 492.835 267.591 489.744 256.31H489.718Z" fill="#236B44"/>
<path d="M451.282 68.4638L450.304 88.2788C450.304 88.2788 465.864 101.093 478.676 100.511L484.593 74.0913L448.323 49.4414L451.282 68.4638Z" fill="#FFA689"/>
<path d="M458.758 65.0027C458.758 65.0027 467.026 80.432 482.11 85.1348L484.593 74.0648L458.758 64.9763V65.0027Z" fill="#ED8A6D"/>
<path d="M426.899 338.133L390.022 310.128C387.961 308.542 387.539 305.61 389.124 303.523C390.709 301.462 393.641 301.039 395.728 302.624L432.605 330.63C434.666 332.215 435.088 335.147 433.503 337.235C431.918 339.295 428.986 339.718 426.899 338.133Z" fill="#07150E"/>
<path d="M396.23 313.245L315.157 420.035" stroke="#07150E" stroke-width="0.94" stroke-miterlimit="10"/>
<path d="M422.197 333.034L341.125 439.797" stroke="#07150E" stroke-width="0.94" stroke-miterlimit="10"/>
<path d="M418.948 118.847C418.948 118.847 379.482 120.828 373.142 143.1C366.802 165.372 367.647 252.902 367.647 252.902C367.647 252.902 375.968 272.796 402.649 275.359C402.649 275.359 416.57 278.582 415.751 249.361C414.959 220.167 418.921 118.847 418.921 118.847H418.948Z" fill="#050D08"/>
<path d="M396.732 123.153C396.732 123.153 392.769 126.614 390.656 131.159C382.916 147.803 385.293 192.691 382.018 196.31C379.27 199.322 374.621 199.877 370.025 201.145C368.07 201.674 365.772 200.432 365.877 198.53C367.621 160.141 364.662 128.2 396.732 123.153Z" fill="#18432B"/>
<path d="M368.017 206.561C368.017 206.561 378.636 204.13 380.485 206.667C383.127 210.286 382.097 251.475 379.138 252.611C376.206 253.747 365.851 252.849 365.27 251.977C363.077 248.727 361.703 207.909 368.017 206.588V206.561Z" fill="#18432B"/>
<path d="M501.552 18.7941C501.552 18.7941 512.489 72.0304 496.243 78.5297C479.996 85.0291 456.222 68.4637 450.41 51.6078C445.444 37.2353 445.972 3.10064 501.552 18.7941Z" fill="#FFA689"/>
<path d="M485.438 27.143C485.438 27.143 489.85 38.4507 481.132 41.1192C474.026 43.2856 471.966 48.5168 471.966 48.5168C471.966 48.5168 470.513 37.1561 462.773 36.7334C454.346 36.2843 454.822 48.3054 462.218 54.2234C462.218 54.2234 462.218 68.4903 451.282 68.4903C451.282 68.4903 426.609 40.168 437.387 23.0743C435.802 17.8695 443.172 3.97264 462.086 2.2025C481 0.432362 486.442 4.8445 500.813 0.379516C514.549 -3.8741 523.61 29.0716 485.465 27.1694L485.438 27.143Z" fill="#050D08"/>
<path opacity="0.22" d="M454.267 251.898L502.952 378.397L399.69 477.578" stroke="#FBFBFB" stroke-width="0.25" stroke-miterlimit="10"/>
<path d="M317.35 529.916C317.35 536.441 312.067 541.752 305.515 541.752C298.964 541.752 293.681 536.468 293.681 529.916C293.681 523.363 298.964 518.079 305.515 518.079C312.067 518.079 317.35 523.363 317.35 529.916Z" fill="#07150E"/>
<path d="M273.287 509.044C273.287 515.569 268.004 520.88 261.453 520.88C254.901 520.88 249.618 515.596 249.618 509.044C249.618 502.492 254.901 497.208 261.453 497.208C268.004 497.208 273.287 502.492 273.287 509.044Z" fill="#07150E"/>
<path d="M369.179 417.763C369.179 417.763 372.825 470.603 353.91 499.77C334.996 528.938 307.391 524.209 307.391 524.209L313.071 515.279C313.071 515.279 333.015 523.443 344.823 492.294C356.658 461.144 354.28 428.806 354.28 428.806L369.153 417.763H369.179Z" fill="#07150E"/>
<path d="M347.306 402.835C347.306 402.835 359.141 403.972 368.519 415.226C375.757 423.892 321.577 507.696 309.399 526.296C307.946 528.515 305.251 529.546 302.689 528.859C293.971 526.534 273.816 520.272 259.181 509.229C259.181 509.229 315.105 411.078 347.306 402.835Z" fill="#050D08"/>
<path d="M351.507 403.76C351.507 403.76 307.021 376.997 283.141 399.216C267.291 413.958 236.753 455.491 224.919 471.871C222.066 475.834 222.515 481.276 226.002 484.711C233.636 492.188 249.645 504.024 260.924 510.18C262.589 511.105 264.676 510.55 265.732 508.965C275.401 494.302 321.656 425.451 351.533 403.734L351.507 403.76Z" fill="#18432B"/>
<path d="M252.999 437.234C251.256 435.86 248.641 436.6 247.293 438.37C241.64 445.794 227.508 464.368 225.421 467.881C221.326 474.751 238.074 489.282 258.547 500.087C264.94 503.469 272.759 488.806 281.001 477.578C286.443 470.154 291.145 463.628 290.537 461.224C289.851 458.634 279.205 455.306 269.457 449.282C263.091 445.319 257.649 440.907 252.999 437.261V437.234Z" fill="#236B44"/>
<path d="M351.507 403.76C351.507 403.76 331.404 389.52 302.9 389.071C278.676 388.701 252.075 430.629 252.075 430.629C248.641 435.041 290.141 460.193 294.764 454.46C313.097 431.871 331.034 414.724 340.174 406.455C340.808 405.926 345.721 401.964 351.533 403.76H351.507Z" fill="#236B44"/>
<path d="M276.114 504.764L300.893 467.379C301.791 466.032 303.561 465.53 305.014 466.243L329.264 477.736C330.796 478.476 331.324 480.378 330.4 481.805L306.387 518.211C305.014 520.299 302.319 521.144 299.995 520.166L278.016 510.999C275.559 509.968 274.661 506.983 276.114 504.764Z" fill="#103F26"/>
<path d="M444.783 90.7888C444.783 90.7888 420.533 95.1745 416.597 131.449C412.661 167.724 416.597 270.392 416.597 270.392C416.597 270.392 439.315 279.19 465.071 266.64C481.661 258.556 492.254 258.107 496.744 257.103C498.567 256.68 499.835 255.121 499.862 253.245C499.914 249.282 499.967 241.673 499.941 230.207C499.862 198.16 496.401 143.629 482.612 106.218C482.612 106.218 459.207 91.9249 444.81 90.7888H444.783Z" fill="#5EB083"/>
<path d="M461.135 157.05C440.9 156.046 425.922 164.157 414.853 176.601C414.642 219.401 416.597 270.392 416.597 270.392C416.597 270.392 430.122 275.597 448.085 272.241C435.22 252.558 435.115 234.514 446.236 212.374C455.139 194.672 461.135 157.05 461.135 157.05Z" fill="#5EB083"/>
<path d="M416.597 131.449C416.597 131.449 435.828 100.141 449.908 105.425C467.211 111.925 470.724 145.372 444.783 180.405L430.967 195.016L427.427 208.014C427.427 208.014 462.614 176.971 470.883 146.799C479.151 116.627 468.294 104.659 453.131 99.4809C434.507 93.1136 425.578 104.474 414.219 120.168L416.57 131.396L416.597 131.449Z" fill="#050D08"/>
<path d="M413.427 163.787C413.427 163.787 407.509 189.415 405.555 221.753C403.89 248.939 403.626 282.413 403.6 292.373C403.6 294.091 402.939 295.729 401.724 296.918C398.502 300.088 392.294 307.935 393.35 320.511C393.72 324.923 395.649 331.026 406.611 334.54C408.117 335.015 412.08 336.68 412.08 328.991C412.08 321.303 415.197 316.125 418.34 313.562C421.484 310.999 424.707 317.763 424.707 323.258C424.707 328.754 428.405 325.266 429.145 321.356C429.884 317.446 429.303 306.931 421.008 295.993C421.008 295.993 420.85 294.064 421.906 280.907C422.937 267.75 425.156 223.206 429.884 211.819C434.613 200.432 448.217 167.962 448.217 167.962L413.48 163.761L413.427 163.787Z" fill="#FFA689"/>
<path d="M407.113 180.564C407.113 180.564 422.963 188.094 443.066 188.094C443.066 188.094 457.912 162.625 463.645 144.474C469.377 126.35 470.407 107.011 448.402 103.074C426.397 99.1375 413.585 125.108 407.087 180.564H407.113Z" fill="#5EB083"/>
<path d="M456.697 506.217C456.697 506.217 450.885 514.671 453.738 526.904C454.161 528.727 455.72 529.968 457.437 529.968H520.202C521.497 529.968 522.527 528.753 522.368 527.379C521.946 523.812 519.014 517.604 504.088 515.781C499.994 515.279 496.084 513.746 492.835 511.21C487.472 507.009 479.283 501.25 476.457 502.835C476.457 502.835 467.449 508.277 456.671 506.217H456.697Z" fill="#050D08"/>
<path d="M450.516 83.946C448.27 84.0253 444.757 90.7889 444.757 90.7889C444.757 90.7889 451.414 95.9143 467.554 101.832C475.03 104.58 478.781 108.437 480.498 110.868C481.027 111.608 482.162 111.317 482.268 110.419C482.744 106.826 482.955 100.511 479.442 96.8654C479.442 96.8654 457.199 90.7888 450.463 83.946H450.516Z" fill="#236B44"/>
<path d="M393.694 470.576C393.694 470.576 383.523 471.871 376.259 482.122C375.176 483.628 375.281 485.636 376.444 486.93L418.182 533.826C419.054 534.803 420.639 534.75 421.563 533.72C423.941 531.025 426.609 524.711 418.103 512.346C415.751 508.964 414.299 505.028 414.034 500.906C413.612 494.09 412.476 484.156 409.385 483.099C409.385 483.099 399.347 479.982 393.72 470.576H393.694Z" fill="#050D08"/>
<path d="M419.582 320.749L429.462 328.252L428.643 332.638L417.125 326.878L419.582 320.749Z" fill="#07150E"/>
<path d="M149.79 411.369C149.79 414.196 134.337 416.495 115.264 416.495C96.1912 416.495 80.7375 414.196 80.7375 411.369C80.7375 408.542 96.1912 406.244 115.264 406.244C134.337 406.244 149.79 408.542 149.79 411.369Z" fill="#103F26"/>
<path d="M115.264 535.728C151.096 535.728 180.143 532.381 180.143 528.251C180.143 524.122 151.096 520.774 115.264 520.774C79.4323 520.774 50.385 524.122 50.385 528.251C50.385 532.381 79.4323 535.728 115.264 535.728Z" fill="#F5F5F5"/>
<path d="M123.664 420.378C123.664 420.378 116.506 398.82 125.646 389.071C134.786 379.322 120.151 362.862 141.813 353.589C163.474 344.289 162.734 322.571 181.569 322.492C200.431 322.386 215.25 313.615 221.405 321.937C227.56 330.26 198.978 334.302 198.925 348.437C198.872 362.571 196.072 363.919 188.358 372.743C184.026 377.684 186.034 388.595 176.418 399.189C168.889 407.485 149.051 404.685 123.664 420.378Z" fill="#236B44"/>
<path d="M123.664 420.378C123.664 420.378 132.699 398.74 153.489 387.3C174.278 375.834 166.935 329.203 221.432 321.937" stroke="#FBFBFB" stroke-width="0.4" stroke-linecap="round" stroke-linejoin="round"/>
<path d="M127.917 430.629C127.917 430.629 124.113 399.797 131.087 375.015C138.061 350.233 126.649 342.307 107.128 335.887C87.5794 329.493 99.8631 309.071 94.0515 290.022C88.2399 270.973 73.6051 300.564 68.7445 274.646C63.8838 248.728 56.4872 235.333 50.5699 236.442C44.6526 237.552 42.6714 243.285 38.4712 272.928C34.2446 302.571 13.6661 300.379 31.5237 323.892C49.3812 347.38 53.9249 340.748 44.0187 361.145C22.8327 404.711 98.6744 391.818 127.944 430.629H127.917Z" fill="#5EB083"/>
<path d="M127.918 430.629C127.918 430.629 118.196 378.767 90.1683 353.166C62.1404 327.565 43.5696 300.167 50.57 236.469" stroke="#FBFBFB" stroke-width="0.48" stroke-linecap="round" stroke-linejoin="round"/>
<path d="M118.17 426.402C118.17 426.402 87.7379 345.768 66.7896 350.841C45.8414 355.94 43.728 356.997 24.6553 341.726C5.55618 326.455 -8.31243 343.126 6.29589 355.359C20.9042 367.591 21.4061 368.701 7.48458 382.149C-6.43691 395.623 26.7687 410.682 55.9853 406.164C85.2019 401.62 113.6 419.718 118.17 426.402Z" fill="#236B44"/>
<path d="M118.17 426.402C118.17 426.402 103.905 396.415 65.4688 388.648C27.0329 380.88 44.996 355.543 0.220093 343.813" stroke="#FBFBFB" stroke-width="0.44" stroke-linecap="round" stroke-linejoin="round"/>
<path d="M115.264 416.521C99.282 416.521 85.8889 414.909 81.9264 412.717C85.836 417.789 98.3838 440.378 105.833 527.274C105.833 528.542 110.06 529.546 115.264 529.546C120.468 529.546 124.695 528.515 124.695 527.274C132.144 440.378 144.692 417.789 148.602 412.717C144.666 414.909 131.246 416.521 115.264 416.521Z" fill="#FFBB8A"/>
</svg>
