<svg width="255" height="71" viewBox="0 0 255 71" fill="none" xmlns="http://www.w3.org/2000/svg">
<path d="M82.2222 43.8887C78.7387 52.3781 70.598 58.3331 61.1111 58.3331C51.6242 58.3331 43.4835 52.3781 40 43.8887" stroke="url(#paint0_linear_1548_630)" stroke-width="5.05" stroke-linecap="round"/>
<path d="M82.2222 26.1109C78.7387 17.6216 70.598 11.6665 61.1111 11.6665C51.6242 11.6665 43.4835 17.6216 40 26.1109" stroke="url(#paint1_linear_1548_630)" stroke-width="5.05" stroke-linecap="round"/>
<path d="M4.09537 40.4787C3.47665 40.4787 2.91194 40.3814 2.40124 40.1867C1.90037 39.9822 1.47316 39.6901 1.1196 39.3104C0.766041 38.9308 0.491052 38.4732 0.294631 37.9377C0.0982103 37.3925 0 36.7743 0 36.0831V29.789H1.98876V36.1999C1.98876 36.5504 2.03295 36.8717 2.12134 37.1637C2.20973 37.4558 2.34232 37.7089 2.5191 37.9231C2.69587 38.1373 2.91685 38.3077 3.18201 38.4342C3.44718 38.5511 3.75164 38.6095 4.09537 38.6095C4.44893 38.6095 4.75829 38.5511 5.02346 38.4342C5.28863 38.3077 5.5096 38.1373 5.68638 37.9231C5.86316 37.7089 5.99574 37.4558 6.08413 37.1637C6.17252 36.8717 6.21671 36.5504 6.21671 36.1999V29.789H8.20547V36.0831C8.20547 36.7354 8.10726 37.3341 7.91084 37.8793C7.72424 38.4148 7.44925 38.8772 7.08588 39.2666C6.73232 39.6463 6.30019 39.9433 5.7895 40.1574C5.28863 40.3716 4.72392 40.4787 4.09537 40.4787Z" fill="white"/>
<path d="M10.0903 29.789H13.9352C14.4656 29.789 14.9468 29.8717 15.3789 30.0372C15.8111 30.2027 16.1793 30.4315 16.4838 30.7236C16.7981 31.0157 17.0387 31.3661 17.2056 31.775C17.3726 32.1742 17.4561 32.6123 17.4561 33.0894C17.4561 33.4398 17.3972 33.7709 17.2793 34.0824C17.1615 34.3842 16.9994 34.6617 16.7932 34.9148C16.5869 35.1582 16.3463 35.3772 16.0713 35.572C15.7963 35.7569 15.5066 35.903 15.2022 36.0101L15.1874 36.1123L18.0159 40.1282V40.2451H15.7325L13.0072 36.3167H12.0791V40.2451H10.0903V29.789ZM13.9205 34.5059C14.3723 34.5059 14.7406 34.3696 15.0254 34.097C15.32 33.8244 15.4673 33.4788 15.4673 33.0602C15.4673 32.8752 15.433 32.6951 15.3642 32.5198C15.3053 32.3446 15.212 32.1888 15.0843 32.0525C14.9566 31.9162 14.7946 31.8091 14.5982 31.7312C14.4116 31.6436 14.1955 31.5998 13.95 31.5998H12.0791V34.5059H13.9205Z" fill="white"/>
<path d="M28.3354 37.9572C27.892 38.7328 27.2922 39.3597 26.536 39.8379C25.7928 40.3162 24.88 40.5553 23.7978 40.5553C23.0676 40.5553 22.3896 40.4325 21.7637 40.1869C21.1509 39.9284 20.6163 39.5729 20.1599 39.1205C19.7035 38.6681 19.345 38.1382 19.0842 37.5307C18.8364 36.9102 18.7126 36.2316 18.7126 35.4949C18.7126 34.8098 18.8364 34.1635 19.0842 33.556C19.3319 32.9356 19.6775 32.3992 20.1208 31.9468C20.5641 31.4815 21.0857 31.1131 21.6855 30.8416C22.2983 30.5702 22.9698 30.4345 23.7 30.4345C24.4693 30.4345 25.1538 30.5637 25.7536 30.8222C26.3534 31.0678 26.8554 31.4168 27.2596 31.8692C27.6639 32.3087 27.9703 32.8322 28.1789 33.4397C28.3875 34.0472 28.4918 34.7064 28.4918 35.4173C28.4918 35.5078 28.4918 35.5854 28.4918 35.65C28.4788 35.7275 28.4723 35.7986 28.4723 35.8633C28.4592 35.9279 28.4527 35.999 28.4527 36.0765H21.2356C21.2878 36.4643 21.3921 36.8004 21.5485 37.0847C21.7181 37.3562 21.9202 37.5888 22.1549 37.7827C22.4026 37.9637 22.6699 38.0994 22.9568 38.1899C23.2436 38.2674 23.537 38.3062 23.8369 38.3062C24.4237 38.3062 24.9061 38.177 25.2842 37.9184C25.6754 37.647 25.9818 37.3109 26.2035 36.9102L28.3354 37.9572ZM26.0079 34.2734C25.9949 34.1054 25.9362 33.9179 25.8319 33.7111C25.7406 33.5043 25.5972 33.3104 25.4016 33.1295C25.219 32.9485 24.9843 32.7999 24.6975 32.6835C24.4237 32.5672 24.0912 32.509 23.7 32.509C23.1523 32.509 22.6699 32.6642 22.2527 32.9744C21.8354 33.2846 21.542 33.7176 21.3725 34.2734H26.0079Z" fill="white"/>
<path d="M30.1282 40.2451V26.3629H32.6903V40.2451H30.1282Z" fill="white"/>
<path d="M39.3262 30.4345C40.0694 30.4345 40.7475 30.5637 41.3603 30.8222C41.9862 31.0678 42.5208 31.4168 42.9641 31.8692C43.4205 32.3087 43.7725 32.8387 44.0202 33.4591C44.281 34.0795 44.4114 34.7581 44.4114 35.4949C44.4114 36.2316 44.281 36.9102 44.0202 37.5307C43.7725 38.1511 43.4205 38.6875 42.9641 39.1399C42.5208 39.5794 41.9862 39.9284 41.3603 40.1869C40.7475 40.4325 40.0694 40.5553 39.3262 40.5553C38.583 40.5553 37.8984 40.4325 37.2725 40.1869C36.6597 39.9284 36.1251 39.5794 35.6687 39.1399C35.2254 38.6875 34.8734 38.1511 34.6126 37.5307C34.3648 36.9102 34.241 36.2316 34.241 35.4949C34.241 34.7581 34.3648 34.0795 34.6126 33.4591C34.8734 32.8387 35.2254 32.3087 35.6687 31.8692C36.1251 31.4168 36.6597 31.0678 37.2725 30.8222C37.8984 30.5637 38.583 30.4345 39.3262 30.4345ZM39.3262 38.2093C39.6522 38.2093 39.9651 38.1511 40.265 38.0348C40.5779 37.9055 40.8518 37.7246 41.0865 37.4919C41.3212 37.2592 41.5037 36.9749 41.6341 36.6388C41.7775 36.3027 41.8492 35.9214 41.8492 35.4949C41.8492 35.0683 41.7775 34.687 41.6341 34.351C41.5037 34.0149 41.3212 33.7305 41.0865 33.4979C40.8518 33.2652 40.5779 33.0907 40.265 32.9744C39.9651 32.8451 39.6522 32.7805 39.3262 32.7805C38.9872 32.7805 38.6677 32.8451 38.3678 32.9744C38.0679 33.0907 37.8006 33.2652 37.5659 33.4979C37.3312 33.7305 37.1422 34.0149 36.9987 34.351C36.8683 34.687 36.8031 35.0683 36.8031 35.4949C36.8031 35.9214 36.8683 36.3027 36.9987 36.6388C37.1422 36.9749 37.3312 37.2592 37.5659 37.4919C37.8006 37.7246 38.0679 37.9055 38.3678 38.0348C38.6677 38.1511 38.9872 38.2093 39.3262 38.2093Z" fill="white"/>
<path d="M55.1524 37.8215C54.7352 38.6229 54.1484 39.2821 53.3921 39.7991C52.6489 40.3032 51.7166 40.5553 50.5953 40.5553C49.8521 40.5553 49.1675 40.4325 48.5416 40.1869C47.9288 39.9284 47.3942 39.5729 46.9378 39.1205C46.4945 38.6681 46.1425 38.1382 45.8817 37.5307C45.6339 36.9102 45.5101 36.2316 45.5101 35.4949C45.5101 34.7581 45.6339 34.0795 45.8817 33.4591C46.1425 32.8387 46.4945 32.3087 46.9378 31.8692C47.3942 31.4168 47.9288 31.0678 48.5416 30.8222C49.1675 30.5637 49.8521 30.4345 50.5953 30.4345C51.7036 30.4345 52.6359 30.6865 53.3921 31.1906C54.1484 31.6947 54.7026 32.3475 55.0546 33.1489L52.7076 34.1183C52.4859 33.6788 52.1991 33.3492 51.847 33.1295C51.508 32.8968 51.0777 32.7805 50.5562 32.7805C50.2171 32.7805 49.8977 32.8451 49.5978 32.9744C49.2979 33.1036 49.0306 33.2846 48.7959 33.5173C48.5742 33.7499 48.3982 34.0343 48.2678 34.3703C48.1374 34.7064 48.0722 35.0813 48.0722 35.4949C48.0722 35.9085 48.1374 36.2833 48.2678 36.6194C48.3982 36.9555 48.5742 37.2398 48.7959 37.4725C49.0306 37.7052 49.2979 37.8861 49.5978 38.0154C49.8977 38.1446 50.2171 38.2093 50.5562 38.2093C51.0908 38.2093 51.5406 38.0929 51.9057 37.8603C52.2838 37.6147 52.5837 37.2657 52.8054 36.8133L55.1524 37.8215Z" fill="white"/>
<path d="M62.5268 39.2369H62.3703C62.0704 39.5988 61.7053 39.909 61.275 40.1675C60.8578 40.426 60.3166 40.5553 59.6516 40.5553C59.1562 40.5553 58.6868 40.4713 58.2434 40.3032C57.8131 40.1481 57.435 39.9284 57.109 39.644C56.7831 39.3597 56.5288 39.0171 56.3463 38.6164C56.1637 38.2157 56.0724 37.7763 56.0724 37.298C56.0724 36.8068 56.1702 36.3674 56.3658 35.9796C56.5614 35.5789 56.8352 35.2364 57.1873 34.952C57.5393 34.6676 57.9501 34.4544 58.4195 34.3122C58.9019 34.1571 59.4235 34.0795 59.9841 34.0795C60.61 34.0795 61.1251 34.1312 61.5293 34.2346C61.9335 34.3251 62.266 34.4221 62.5268 34.5255V34.2346C62.5268 33.7305 62.3246 33.3169 61.9204 32.9938C61.5162 32.6577 61.0142 32.4897 60.4144 32.4897C59.5278 32.4897 58.778 32.858 58.1652 33.5948L56.3071 32.3346C57.3242 31.0678 58.7128 30.4345 60.4731 30.4345C61.9596 30.4345 63.094 30.7835 63.8763 31.4815C64.6586 32.1665 65.0498 33.1876 65.0498 34.5448V40.2451H62.5268V39.2369ZM62.5268 36.3868C62.2269 36.2446 61.9139 36.1347 61.5879 36.0571C61.275 35.9667 60.9295 35.9214 60.5513 35.9214C59.9385 35.9214 59.4626 36.0571 59.1236 36.3286C58.7976 36.5871 58.6346 36.9102 58.6346 37.298C58.6346 37.6858 58.7911 37.996 59.104 38.2287C59.43 38.4613 59.8016 38.5777 60.2188 38.5777C60.5579 38.5777 60.8708 38.5195 61.1577 38.4032C61.4445 38.2739 61.6857 38.1123 61.8813 37.9184C62.0899 37.7116 62.2464 37.479 62.3507 37.2205C62.4681 36.949 62.5268 36.6711 62.5268 36.3868Z" fill="white"/>
<path d="M67.9521 32.9162H66.2701V30.7447H67.9521V27.8364H70.5143V30.7447H72.8613V32.9162H70.5143V36.6C70.5143 36.8198 70.5338 37.0266 70.573 37.2205C70.6251 37.4014 70.7164 37.5565 70.8468 37.6858C71.0293 37.8926 71.2901 37.996 71.6291 37.996C71.8508 37.996 72.0268 37.9766 72.1572 37.9378C72.2876 37.8861 72.4115 37.8215 72.5288 37.7439L73.2525 39.9736C72.9526 40.1158 72.6266 40.2192 72.2745 40.2838C71.9355 40.3614 71.5574 40.4002 71.1401 40.4002C70.6577 40.4002 70.2209 40.3291 69.8297 40.1869C69.4516 40.0318 69.1321 39.825 68.8714 39.5665C68.2585 38.9848 67.9521 38.1576 67.9521 37.0847V32.9162Z" fill="white"/>
<path d="M76.2694 29.3681C76.0477 29.3681 75.8326 29.3293 75.6239 29.2518C75.4284 29.1613 75.2523 29.045 75.0959 28.9028C74.9524 28.7477 74.8351 28.5732 74.7438 28.3793C74.6656 28.1854 74.6265 27.9721 74.6265 27.7395C74.6265 27.5068 74.6656 27.2935 74.7438 27.0997C74.8351 26.9058 74.9524 26.7377 75.0959 26.5956C75.2523 26.4404 75.4284 26.3241 75.6239 26.2466C75.8326 26.1561 76.0477 26.1108 76.2694 26.1108C76.7257 26.1108 77.1169 26.2724 77.4429 26.5956C77.7689 26.9058 77.9319 27.2871 77.9319 27.7395C77.9319 28.1919 77.7689 28.5796 77.4429 28.9028C77.1169 29.213 76.7257 29.3681 76.2694 29.3681ZM74.9981 40.2451V30.7447H77.5602V40.2451H74.9981Z" fill="white"/>
<path d="M84.3452 30.4345C85.0884 30.4345 85.7665 30.5637 86.3793 30.8222C87.0052 31.0678 87.5398 31.4168 87.9831 31.8692C88.4395 32.3087 88.7915 32.8387 89.0393 33.4591C89.3001 34.0795 89.4304 34.7581 89.4304 35.4949C89.4304 36.2316 89.3001 36.9102 89.0393 37.5307C88.7915 38.1511 88.4395 38.6875 87.9831 39.1399C87.5398 39.5794 87.0052 39.9284 86.3793 40.1869C85.7665 40.4325 85.0884 40.5553 84.3452 40.5553C83.602 40.5553 82.9174 40.4325 82.2916 40.1869C81.6787 39.9284 81.1441 39.5794 80.6878 39.1399C80.2444 38.6875 79.8924 38.1511 79.6316 37.5307C79.3839 36.9102 79.26 36.2316 79.26 35.4949C79.26 34.7581 79.3839 34.0795 79.6316 33.4591C79.8924 32.8387 80.2444 32.3087 80.6878 31.8692C81.1441 31.4168 81.6787 31.0678 82.2916 30.8222C82.9174 30.5637 83.602 30.4345 84.3452 30.4345ZM84.3452 38.2093C84.6712 38.2093 84.9841 38.1511 85.284 38.0348C85.597 37.9055 85.8708 37.7246 86.1055 37.4919C86.3402 37.2592 86.5227 36.9749 86.6531 36.6388C86.7966 36.3027 86.8683 35.9214 86.8683 35.4949C86.8683 35.0683 86.7966 34.687 86.6531 34.351C86.5227 34.0149 86.3402 33.7305 86.1055 33.4979C85.8708 33.2652 85.597 33.0907 85.284 32.9744C84.9841 32.8451 84.6712 32.7805 84.3452 32.7805C84.0062 32.7805 83.6868 32.8451 83.3869 32.9744C83.087 33.0907 82.8196 33.2652 82.585 33.4979C82.3503 33.7305 82.1612 34.0149 82.0178 34.351C81.8874 34.687 81.8222 35.0683 81.8222 35.4949C81.8222 35.9214 81.8874 36.3027 82.0178 36.6388C82.1612 36.9749 82.3503 37.2592 82.585 37.4919C82.8196 37.7246 83.087 37.9055 83.3869 38.0348C83.6868 38.1511 84.0062 38.2093 84.3452 38.2093Z" fill="white"/>
<path d="M93.2914 31.9856H93.4479C93.7478 31.5073 94.152 31.1325 94.6605 30.861C95.169 30.5767 95.7493 30.4345 96.4012 30.4345C97.001 30.4345 97.5291 30.5314 97.9855 30.7253C98.4418 30.9192 98.8134 31.1971 99.1003 31.559C99.4002 31.908 99.6219 32.3346 99.7653 32.8387C99.9218 33.3298 100 33.8792 100 34.4867V40.2451H97.4378V34.7969C97.4378 34.1118 97.2814 33.6077 96.9684 33.2846C96.6685 32.9485 96.2252 32.7805 95.6385 32.7805C95.2864 32.7805 94.9735 32.858 94.6996 33.0132C94.4389 33.1553 94.2107 33.3557 94.0151 33.6142C93.8325 33.8598 93.6891 34.1571 93.5848 34.5061C93.4935 34.8421 93.4479 35.2041 93.4479 35.5918V40.2451H90.8857V30.7447H93.2914V31.9856Z" fill="white"/>
<path d="M137.984 5.764L136.58 9.64H139.436L138.032 5.764H137.984ZM135.368 13H134.144L137.384 4.408H138.632L141.872 13H140.648L139.82 10.672H136.208L135.368 13ZM143.792 4.408V13H142.688V4.408H143.792ZM146.241 4.408V13H145.137V4.408H146.241ZM151.651 5.092C151.651 5.308 151.575 5.492 151.423 5.644C151.271 5.796 151.087 5.872 150.871 5.872C150.655 5.872 150.471 5.796 150.319 5.644C150.167 5.492 150.091 5.308 150.091 5.092C150.091 4.876 150.167 4.692 150.319 4.54C150.471 4.388 150.655 4.312 150.871 4.312C151.087 4.312 151.271 4.388 151.423 4.54C151.575 4.692 151.651 4.876 151.651 5.092ZM151.423 7.12V13H150.319V7.12H151.423ZM153.964 13H152.86V7.12H153.916V7.936H153.964C154.132 7.648 154.388 7.408 154.732 7.216C155.084 7.024 155.432 6.928 155.776 6.928C156.208 6.928 156.588 7.028 156.916 7.228C157.244 7.428 157.484 7.704 157.636 8.056C158.124 7.304 158.8 6.928 159.664 6.928C160.344 6.928 160.868 7.136 161.236 7.552C161.604 7.968 161.788 8.56 161.788 9.328V13H160.684V9.496C160.684 8.944 160.584 8.548 160.384 8.308C160.184 8.06 159.848 7.936 159.376 7.936C158.952 7.936 158.596 8.116 158.308 8.476C158.02 8.836 157.876 9.26 157.876 9.748V13H156.772V9.496C156.772 8.944 156.672 8.548 156.472 8.308C156.272 8.06 155.936 7.936 155.464 7.936C155.04 7.936 154.684 8.116 154.396 8.476C154.108 8.836 153.964 9.26 153.964 9.748V13ZM164.182 13H163.078V7.12H164.134V7.936H164.182C164.35 7.648 164.606 7.408 164.95 7.216C165.302 7.024 165.65 6.928 165.994 6.928C166.426 6.928 166.806 7.028 167.134 7.228C167.462 7.428 167.702 7.704 167.854 8.056C168.342 7.304 169.018 6.928 169.882 6.928C170.562 6.928 171.086 7.136 171.454 7.552C171.822 7.968 172.006 8.56 172.006 9.328V13H170.902V9.496C170.902 8.944 170.802 8.548 170.602 8.308C170.402 8.06 170.066 7.936 169.594 7.936C169.17 7.936 168.814 8.116 168.526 8.476C168.238 8.836 168.094 9.26 168.094 9.748V13H166.99V9.496C166.99 8.944 166.89 8.548 166.69 8.308C166.49 8.06 166.154 7.936 165.682 7.936C165.258 7.936 164.902 8.116 164.614 8.476C164.326 8.836 164.182 9.26 164.182 9.748V13ZM174.725 5.092C174.725 5.308 174.649 5.492 174.497 5.644C174.345 5.796 174.161 5.872 173.945 5.872C173.729 5.872 173.545 5.796 173.393 5.644C173.241 5.492 173.165 5.308 173.165 5.092C173.165 4.876 173.241 4.692 173.393 4.54C173.545 4.388 173.729 4.312 173.945 4.312C174.161 4.312 174.345 4.388 174.497 4.54C174.649 4.692 174.725 4.876 174.725 5.092ZM174.497 7.12V13H173.393V7.12H174.497ZM178.515 12.184C179.059 12.184 179.503 11.988 179.847 11.596C180.207 11.204 180.387 10.692 180.387 10.06C180.387 9.444 180.207 8.936 179.847 8.536C179.495 8.136 179.051 7.936 178.515 7.936C177.987 7.936 177.543 8.136 177.183 8.536C176.823 8.936 176.643 9.444 176.643 10.06C176.643 10.684 176.823 11.192 177.183 11.584C177.543 11.984 177.987 12.184 178.515 12.184ZM178.479 15.784C178.151 15.784 177.843 15.74 177.555 15.652C177.267 15.572 177.003 15.456 176.763 15.304C176.531 15.152 176.331 14.972 176.163 14.764C175.995 14.556 175.867 14.324 175.779 14.068L176.823 13.636C176.943 13.98 177.151 14.256 177.447 14.464C177.743 14.672 178.087 14.776 178.479 14.776C179.079 14.776 179.547 14.596 179.883 14.236C180.219 13.876 180.387 13.38 180.387 12.748V12.184H180.339C180.131 12.496 179.847 12.744 179.487 12.928C179.135 13.104 178.751 13.192 178.335 13.192C177.567 13.192 176.907 12.892 176.355 12.292C175.811 11.676 175.539 10.932 175.539 10.06C175.539 9.188 175.811 8.448 176.355 7.84C176.907 7.232 177.567 6.928 178.335 6.928C178.751 6.928 179.135 7.02 179.487 7.204C179.847 7.38 180.131 7.624 180.339 7.936H180.387V7.12H181.443V12.748C181.443 13.692 181.175 14.432 180.639 14.968C180.095 15.512 179.375 15.784 178.479 15.784ZM183.893 13H182.789V7.12H183.845V8.08H183.893C184.005 7.768 184.233 7.504 184.577 7.288C184.929 7.064 185.273 6.952 185.609 6.952C185.929 6.952 186.201 7 186.425 7.096L186.089 8.164C185.953 8.108 185.737 8.08 185.441 8.08C185.025 8.08 184.661 8.248 184.349 8.584C184.045 8.92 183.893 9.312 183.893 9.76V13ZM187.718 11.2C187.718 11.488 187.838 11.728 188.078 11.92C188.326 12.112 188.614 12.208 188.942 12.208C189.406 12.208 189.818 12.036 190.178 11.692C190.546 11.348 190.73 10.944 190.73 10.48C190.386 10.208 189.906 10.072 189.29 10.072C188.842 10.072 188.466 10.18 188.162 10.396C187.866 10.612 187.718 10.88 187.718 11.2ZM189.146 6.928C189.962 6.928 190.606 7.148 191.078 7.588C191.55 8.02 191.786 8.616 191.786 9.376V13H190.73V12.184H190.682C190.226 12.856 189.618 13.192 188.858 13.192C188.21 13.192 187.666 13 187.226 12.616C186.794 12.232 186.578 11.752 186.578 11.176C186.578 10.568 186.806 10.084 187.262 9.724C187.726 9.364 188.342 9.184 189.11 9.184C189.766 9.184 190.306 9.304 190.73 9.544V9.292C190.73 8.908 190.578 8.584 190.274 8.32C189.97 8.048 189.614 7.912 189.206 7.912C188.59 7.912 188.102 8.172 187.742 8.692L186.77 8.08C187.306 7.312 188.098 6.928 189.146 6.928ZM195.242 13.096C194.762 13.096 194.362 12.948 194.042 12.652C193.73 12.356 193.57 11.944 193.562 11.416V8.128H192.53V7.12H193.562V5.32H194.666V7.12H196.106V8.128H194.666V11.056C194.666 11.448 194.742 11.716 194.894 11.86C195.046 11.996 195.218 12.064 195.41 12.064C195.498 12.064 195.582 12.056 195.662 12.04C195.75 12.016 195.83 11.988 195.902 11.956L196.25 12.94C195.962 13.044 195.626 13.096 195.242 13.096ZM198.643 5.092C198.643 5.308 198.567 5.492 198.415 5.644C198.263 5.796 198.079 5.872 197.863 5.872C197.647 5.872 197.463 5.796 197.311 5.644C197.159 5.492 197.083 5.308 197.083 5.092C197.083 4.876 197.159 4.692 197.311 4.54C197.463 4.388 197.647 4.312 197.863 4.312C198.079 4.312 198.263 4.388 198.415 4.54C198.567 4.692 198.643 4.876 198.643 5.092ZM198.415 7.12V13H197.311V7.12H198.415ZM199.457 10.06C199.457 9.156 199.741 8.408 200.309 7.816C200.885 7.224 201.609 6.928 202.481 6.928C203.353 6.928 204.073 7.224 204.641 7.816C205.217 8.408 205.505 9.156 205.505 10.06C205.505 10.972 205.217 11.72 204.641 12.304C204.073 12.896 203.353 13.192 202.481 13.192C201.609 13.192 200.885 12.896 200.309 12.304C199.741 11.712 199.457 10.964 199.457 10.06ZM200.561 10.06C200.561 10.692 200.745 11.204 201.113 11.596C201.481 11.988 201.937 12.184 202.481 12.184C203.025 12.184 203.481 11.988 203.849 11.596C204.217 11.204 204.401 10.692 204.401 10.06C204.401 9.436 204.217 8.928 203.849 8.536C203.473 8.136 203.017 7.936 202.481 7.936C201.945 7.936 201.489 8.136 201.113 8.536C200.745 8.928 200.561 9.436 200.561 10.06ZM206.391 7.12H207.447V7.936H207.495C207.663 7.648 207.919 7.408 208.263 7.216C208.615 7.024 208.979 6.928 209.355 6.928C210.075 6.928 210.627 7.136 211.011 7.552C211.403 7.96 211.599 8.544 211.599 9.304V13H210.495V9.376C210.471 8.416 209.987 7.936 209.043 7.936C208.603 7.936 208.235 8.116 207.939 8.476C207.643 8.828 207.495 9.252 207.495 9.748V13H206.391V7.12ZM216.335 11.2C216.335 11.488 216.455 11.728 216.695 11.92C216.943 12.112 217.231 12.208 217.559 12.208C218.023 12.208 218.435 12.036 218.795 11.692C219.163 11.348 219.347 10.944 219.347 10.48C219.003 10.208 218.523 10.072 217.907 10.072C217.459 10.072 217.083 10.18 216.779 10.396C216.483 10.612 216.335 10.88 216.335 11.2ZM217.763 6.928C218.579 6.928 219.223 7.148 219.695 7.588C220.167 8.02 220.403 8.616 220.403 9.376V13H219.347V12.184H219.299C218.843 12.856 218.235 13.192 217.475 13.192C216.827 13.192 216.283 13 215.843 12.616C215.411 12.232 215.195 11.752 215.195 11.176C215.195 10.568 215.423 10.084 215.879 9.724C216.343 9.364 216.959 9.184 217.727 9.184C218.383 9.184 218.923 9.304 219.347 9.544V9.292C219.347 8.908 219.195 8.584 218.891 8.32C218.587 8.048 218.231 7.912 217.823 7.912C217.207 7.912 216.719 8.172 216.359 8.692L215.387 8.08C215.923 7.312 216.715 6.928 217.763 6.928ZM224.23 12.184C224.774 12.184 225.218 11.988 225.562 11.596C225.922 11.204 226.102 10.692 226.102 10.06C226.102 9.444 225.922 8.936 225.562 8.536C225.21 8.136 224.766 7.936 224.23 7.936C223.702 7.936 223.258 8.136 222.898 8.536C222.538 8.936 222.358 9.444 222.358 10.06C222.358 10.684 222.538 11.192 222.898 11.584C223.258 11.984 223.702 12.184 224.23 12.184ZM224.05 13.192C223.282 13.192 222.622 12.888 222.07 12.28C221.526 11.664 221.254 10.924 221.254 10.06C221.254 9.196 221.526 8.456 222.07 7.84C222.622 7.232 223.282 6.928 224.05 6.928C224.482 6.928 224.874 7.02 225.226 7.204C225.586 7.388 225.862 7.632 226.054 7.936H226.102L226.054 7.12V4.408H227.158V13H226.102V12.184H226.054C225.862 12.488 225.586 12.732 225.226 12.916C224.874 13.1 224.482 13.192 224.05 13.192ZM231.36 13H230.256L227.88 7.12H229.08L230.808 11.68H230.832L232.584 7.12H233.76L231.36 13ZM235.909 5.092C235.909 5.308 235.833 5.492 235.681 5.644C235.529 5.796 235.345 5.872 235.129 5.872C234.913 5.872 234.729 5.796 234.577 5.644C234.425 5.492 234.349 5.308 234.349 5.092C234.349 4.876 234.425 4.692 234.577 4.54C234.729 4.388 234.913 4.312 235.129 4.312C235.345 4.312 235.529 4.388 235.681 4.54C235.833 4.692 235.909 4.876 235.909 5.092ZM235.681 7.12V13H234.577V7.12H235.681ZM239.747 13.192C238.875 13.192 238.151 12.896 237.575 12.304C237.007 11.696 236.723 10.948 236.723 10.06C236.723 9.156 237.007 8.408 237.575 7.816C238.151 7.224 238.875 6.928 239.747 6.928C240.347 6.928 240.871 7.08 241.319 7.384C241.767 7.68 242.103 8.092 242.327 8.62L241.319 9.04C241.007 8.304 240.459 7.936 239.675 7.936C239.171 7.936 238.735 8.14 238.367 8.548C238.007 8.956 237.827 9.46 237.827 10.06C237.827 10.66 238.007 11.164 238.367 11.572C238.735 11.98 239.171 12.184 239.675 12.184C240.483 12.184 241.051 11.816 241.379 11.08L242.363 11.5C242.147 12.028 241.807 12.444 241.343 12.748C240.887 13.044 240.355 13.192 239.747 13.192ZM245.91 13.192C245.046 13.192 244.334 12.896 243.774 12.304C243.214 11.712 242.934 10.964 242.934 10.06C242.934 9.164 243.206 8.42 243.75 7.828C244.294 7.228 244.99 6.928 245.838 6.928C246.71 6.928 247.402 7.212 247.914 7.78C248.434 8.34 248.694 9.128 248.694 10.144L248.682 10.264H244.062C244.078 10.84 244.27 11.304 244.638 11.656C245.006 12.008 245.446 12.184 245.958 12.184C246.662 12.184 247.214 11.832 247.614 11.128L248.598 11.608C248.334 12.104 247.966 12.492 247.494 12.772C247.03 13.052 246.502 13.192 245.91 13.192ZM244.146 9.352H247.518C247.486 8.944 247.318 8.608 247.014 8.344C246.718 8.072 246.318 7.936 245.814 7.936C245.398 7.936 245.038 8.064 244.734 8.32C244.438 8.576 244.242 8.92 244.146 9.352ZM136.1 22.092C136.1 22.308 136.024 22.492 135.872 22.644C135.72 22.796 135.536 22.872 135.32 22.872C135.104 22.872 134.92 22.796 134.768 22.644C134.616 22.492 134.54 22.308 134.54 22.092C134.54 21.876 134.616 21.692 134.768 21.54C134.92 21.388 135.104 21.312 135.32 21.312C135.536 21.312 135.72 21.388 135.872 21.54C136.024 21.692 136.1 21.876 136.1 22.092ZM135.872 24.12V30H134.768V24.12H135.872ZM141.809 28.368C141.809 28.88 141.585 29.312 141.137 29.664C140.689 30.016 140.125 30.192 139.445 30.192C138.853 30.192 138.333 30.04 137.885 29.736C137.437 29.424 137.117 29.016 136.925 28.512L137.909 28.092C138.053 28.444 138.261 28.72 138.533 28.92C138.813 29.112 139.117 29.208 139.445 29.208C139.797 29.208 140.089 29.132 140.321 28.98C140.561 28.828 140.681 28.648 140.681 28.44C140.681 28.064 140.393 27.788 139.817 27.612L138.809 27.36C137.665 27.072 137.093 26.52 137.093 25.704C137.093 25.168 137.309 24.74 137.741 24.42C138.181 24.092 138.741 23.928 139.421 23.928C139.941 23.928 140.409 24.052 140.825 24.3C141.249 24.548 141.545 24.88 141.713 25.296L140.729 25.704C140.617 25.456 140.433 25.264 140.177 25.128C139.929 24.984 139.649 24.912 139.337 24.912C139.049 24.912 138.789 24.984 138.557 25.128C138.333 25.272 138.221 25.448 138.221 25.656C138.221 25.992 138.537 26.232 139.169 26.376L140.057 26.604C141.225 26.892 141.809 27.48 141.809 28.368ZM148.286 29.184C148.814 29.184 149.258 28.984 149.618 28.584C149.978 28.192 150.158 27.684 150.158 27.06C150.158 26.444 149.978 25.936 149.618 25.536C149.258 25.136 148.814 24.936 148.286 24.936C147.75 24.936 147.302 25.136 146.942 25.536C146.59 25.936 146.414 26.444 146.414 27.06C146.414 27.684 146.59 28.196 146.942 28.596C147.302 28.988 147.75 29.184 148.286 29.184ZM148.466 30.192C148.034 30.192 147.638 30.1 147.278 29.916C146.926 29.732 146.654 29.488 146.462 29.184H146.414L146.462 30V32.592H145.358V24.12H146.414V24.936H146.462C146.654 24.632 146.926 24.388 147.278 24.204C147.638 24.02 148.034 23.928 148.466 23.928C149.242 23.928 149.898 24.232 150.434 24.84C150.986 25.456 151.262 26.196 151.262 27.06C151.262 27.932 150.986 28.672 150.434 29.28C149.898 29.888 149.242 30.192 148.466 30.192ZM153.319 30H152.215V24.12H153.271V25.08H153.319C153.431 24.768 153.659 24.504 154.003 24.288C154.355 24.064 154.699 23.952 155.035 23.952C155.355 23.952 155.627 24 155.851 24.096L155.515 25.164C155.379 25.108 155.163 25.08 154.867 25.08C154.451 25.08 154.087 25.248 153.775 25.584C153.471 25.92 153.319 26.312 153.319 26.76V30ZM155.875 27.06C155.875 26.156 156.159 25.408 156.727 24.816C157.303 24.224 158.027 23.928 158.899 23.928C159.771 23.928 160.491 24.224 161.059 24.816C161.635 25.408 161.923 26.156 161.923 27.06C161.923 27.972 161.635 28.72 161.059 29.304C160.491 29.896 159.771 30.192 158.899 30.192C158.027 30.192 157.303 29.896 156.727 29.304C156.159 28.712 155.875 27.964 155.875 27.06ZM156.979 27.06C156.979 27.692 157.163 28.204 157.531 28.596C157.899 28.988 158.355 29.184 158.899 29.184C159.443 29.184 159.899 28.988 160.267 28.596C160.635 28.204 160.819 27.692 160.819 27.06C160.819 26.436 160.635 25.928 160.267 25.536C159.891 25.136 159.435 24.936 158.899 24.936C158.363 24.936 157.907 25.136 157.531 25.536C157.163 25.928 156.979 26.436 156.979 27.06ZM165.665 30H164.561L162.185 24.12H163.385L165.113 28.68H165.137L166.889 24.12H168.065L165.665 30ZM170.213 22.092C170.213 22.308 170.137 22.492 169.985 22.644C169.833 22.796 169.649 22.872 169.433 22.872C169.217 22.872 169.033 22.796 168.881 22.644C168.729 22.492 168.653 22.308 168.653 22.092C168.653 21.876 168.729 21.692 168.881 21.54C169.033 21.388 169.217 21.312 169.433 21.312C169.649 21.312 169.833 21.388 169.985 21.54C170.137 21.692 170.213 21.876 170.213 22.092ZM169.985 24.12V30H168.881V24.12H169.985ZM174.003 29.184C174.547 29.184 174.991 28.988 175.335 28.596C175.695 28.204 175.875 27.692 175.875 27.06C175.875 26.444 175.695 25.936 175.335 25.536C174.983 25.136 174.539 24.936 174.003 24.936C173.475 24.936 173.031 25.136 172.671 25.536C172.311 25.936 172.131 26.444 172.131 27.06C172.131 27.684 172.311 28.192 172.671 28.584C173.031 28.984 173.475 29.184 174.003 29.184ZM173.823 30.192C173.055 30.192 172.395 29.888 171.843 29.28C171.299 28.664 171.027 27.924 171.027 27.06C171.027 26.196 171.299 25.456 171.843 24.84C172.395 24.232 173.055 23.928 173.823 23.928C174.255 23.928 174.647 24.02 174.999 24.204C175.359 24.388 175.635 24.632 175.827 24.936H175.875L175.827 24.12V21.408H176.931V30H175.875V29.184H175.827C175.635 29.488 175.359 29.732 174.999 29.916C174.647 30.1 174.255 30.192 173.823 30.192ZM180.859 30.192C179.995 30.192 179.283 29.896 178.723 29.304C178.163 28.712 177.883 27.964 177.883 27.06C177.883 26.164 178.155 25.42 178.699 24.828C179.243 24.228 179.939 23.928 180.787 23.928C181.659 23.928 182.351 24.212 182.863 24.78C183.383 25.34 183.643 26.128 183.643 27.144L183.631 27.264H179.011C179.027 27.84 179.219 28.304 179.587 28.656C179.955 29.008 180.395 29.184 180.907 29.184C181.611 29.184 182.163 28.832 182.563 28.128L183.547 28.608C183.283 29.104 182.915 29.492 182.443 29.772C181.979 30.052 181.451 30.192 180.859 30.192ZM179.095 26.352H182.467C182.435 25.944 182.267 25.608 181.963 25.344C181.667 25.072 181.267 24.936 180.763 24.936C180.347 24.936 179.987 25.064 179.683 25.32C179.387 25.576 179.191 25.92 179.095 26.352ZM187.351 29.184C187.895 29.184 188.339 28.988 188.683 28.596C189.043 28.204 189.223 27.692 189.223 27.06C189.223 26.444 189.043 25.936 188.683 25.536C188.331 25.136 187.887 24.936 187.351 24.936C186.823 24.936 186.379 25.136 186.019 25.536C185.659 25.936 185.479 26.444 185.479 27.06C185.479 27.684 185.659 28.192 186.019 28.584C186.379 28.984 186.823 29.184 187.351 29.184ZM187.171 30.192C186.403 30.192 185.743 29.888 185.191 29.28C184.647 28.664 184.375 27.924 184.375 27.06C184.375 26.196 184.647 25.456 185.191 24.84C185.743 24.232 186.403 23.928 187.171 23.928C187.603 23.928 187.995 24.02 188.347 24.204C188.707 24.388 188.983 24.632 189.175 24.936H189.223L189.175 24.12V21.408H190.279V30H189.223V29.184H189.175C188.983 29.488 188.707 29.732 188.347 29.916C187.995 30.1 187.603 30.192 187.171 30.192ZM197.37 30.192C196.938 30.192 196.542 30.1 196.182 29.916C195.83 29.732 195.558 29.488 195.366 29.184H195.318V30H194.262V21.408H195.366V24.12L195.318 24.936H195.366C195.558 24.632 195.83 24.388 196.182 24.204C196.542 24.02 196.938 23.928 197.37 23.928C198.146 23.928 198.802 24.232 199.338 24.84C199.89 25.456 200.166 26.196 200.166 27.06C200.166 27.932 199.89 28.672 199.338 29.28C198.802 29.888 198.146 30.192 197.37 30.192ZM197.19 29.184C197.718 29.184 198.162 28.984 198.522 28.584C198.882 28.192 199.062 27.684 199.062 27.06C199.062 26.444 198.882 25.936 198.522 25.536C198.162 25.136 197.718 24.936 197.19 24.936C196.654 24.936 196.206 25.136 195.846 25.536C195.494 25.936 195.318 26.444 195.318 27.06C195.318 27.684 195.494 28.196 195.846 28.596C196.206 28.988 196.654 29.184 197.19 29.184ZM206.198 24.12L202.514 32.592H201.374L202.742 29.628L200.318 24.12H201.518L203.27 28.344H203.294L204.998 24.12H206.198ZM217.924 25.704C217.924 26.976 217.5 28.04 216.652 28.896C215.796 29.76 214.748 30.192 213.508 30.192C212.26 30.192 211.212 29.76 210.364 28.896C209.516 28.04 209.092 26.976 209.092 25.704C209.092 24.432 209.516 23.368 210.364 22.512C211.212 21.648 212.26 21.216 213.508 21.216C214.756 21.216 215.804 21.652 216.652 22.524C217.5 23.38 217.924 24.44 217.924 25.704ZM210.22 25.704C210.22 26.696 210.532 27.516 211.156 28.164C211.788 28.812 212.572 29.136 213.508 29.136C214.444 29.136 215.224 28.812 215.848 28.164C216.48 27.524 216.796 26.704 216.796 25.704C216.796 24.704 216.48 23.884 215.848 23.244C215.224 22.596 214.444 22.272 213.508 22.272C212.572 22.272 211.788 22.596 211.156 23.244C210.532 23.892 210.22 24.712 210.22 25.704ZM220.331 30H219.227V21.408H220.331V30ZM227.367 27.708C227.367 28.46 227.091 29.064 226.539 29.52C225.979 29.968 225.299 30.192 224.499 30.192C223.787 30.192 223.159 29.984 222.615 29.568C222.071 29.152 221.695 28.584 221.487 27.864L222.543 27.432C222.615 27.688 222.715 27.92 222.843 28.128C222.971 28.336 223.119 28.516 223.287 28.668C223.463 28.812 223.655 28.928 223.863 29.016C224.071 29.096 224.291 29.136 224.523 29.136C225.027 29.136 225.439 29.008 225.759 28.752C226.079 28.488 226.239 28.14 226.239 27.708C226.239 27.348 226.107 27.04 225.843 26.784C225.595 26.536 225.131 26.296 224.451 26.064C223.763 25.816 223.335 25.648 223.167 25.56C222.255 25.096 221.799 24.412 221.799 23.508C221.799 22.876 222.051 22.336 222.555 21.888C223.067 21.44 223.695 21.216 224.439 21.216C225.095 21.216 225.663 21.384 226.143 21.72C226.623 22.048 226.943 22.46 227.103 22.956L226.071 23.388C225.975 23.068 225.783 22.804 225.495 22.596C225.215 22.38 224.871 22.272 224.463 22.272C224.031 22.272 223.667 22.392 223.371 22.632C223.075 22.856 222.927 23.148 222.927 23.508C222.927 23.804 223.043 24.06 223.275 24.276C223.531 24.492 224.087 24.748 224.943 25.044C225.815 25.34 226.435 25.704 226.803 26.136C227.179 26.56 227.367 27.084 227.367 27.708ZM232.74 30.192C231.468 30.192 230.404 29.764 229.548 28.908C228.7 28.052 228.276 26.984 228.276 25.704C228.276 24.424 228.7 23.36 229.548 22.512C230.396 21.648 231.46 21.216 232.74 21.216C234.036 21.216 235.088 21.684 235.896 22.62L235.104 23.388C234.488 22.644 233.7 22.272 232.74 22.272C231.788 22.272 230.992 22.592 230.352 23.232C229.72 23.864 229.404 24.688 229.404 25.704C229.404 26.72 229.72 27.544 230.352 28.176C230.992 28.816 231.788 29.136 232.74 29.136C233.74 29.136 234.608 28.716 235.344 27.876L236.148 28.656C235.74 29.144 235.24 29.524 234.648 29.796C234.056 30.06 233.42 30.192 232.74 30.192ZM135.776 47H134.672V41.12H135.728V42.08H135.776C135.888 41.768 136.116 41.504 136.46 41.288C136.812 41.064 137.156 40.952 137.492 40.952C137.812 40.952 138.084 41 138.308 41.096L137.972 42.164C137.836 42.108 137.62 42.08 137.324 42.08C136.908 42.08 136.544 42.248 136.232 42.584C135.928 42.92 135.776 43.312 135.776 43.76V47ZM141.308 47.192C140.444 47.192 139.732 46.896 139.172 46.304C138.612 45.712 138.332 44.964 138.332 44.06C138.332 43.164 138.604 42.42 139.148 41.828C139.692 41.228 140.388 40.928 141.236 40.928C142.108 40.928 142.8 41.212 143.312 41.78C143.832 42.34 144.092 43.128 144.092 44.144L144.08 44.264H139.46C139.476 44.84 139.668 45.304 140.036 45.656C140.404 46.008 140.844 46.184 141.356 46.184C142.06 46.184 142.612 45.832 143.012 45.128L143.996 45.608C143.732 46.104 143.364 46.492 142.892 46.772C142.428 47.052 141.9 47.192 141.308 47.192ZM139.544 43.352H142.916C142.884 42.944 142.716 42.608 142.412 42.344C142.116 42.072 141.716 41.936 141.212 41.936C140.796 41.936 140.436 42.064 140.132 42.32C139.836 42.576 139.64 42.92 139.544 43.352ZM147.8 46.184C148.344 46.184 148.788 45.988 149.132 45.596C149.492 45.204 149.672 44.692 149.672 44.06C149.672 43.444 149.492 42.936 149.132 42.536C148.78 42.136 148.336 41.936 147.8 41.936C147.272 41.936 146.828 42.136 146.468 42.536C146.108 42.936 145.928 43.444 145.928 44.06C145.928 44.684 146.108 45.192 146.468 45.584C146.828 45.984 147.272 46.184 147.8 46.184ZM147.764 49.784C147.436 49.784 147.128 49.74 146.84 49.652C146.552 49.572 146.288 49.456 146.048 49.304C145.816 49.152 145.616 48.972 145.448 48.764C145.28 48.556 145.152 48.324 145.064 48.068L146.108 47.636C146.228 47.98 146.436 48.256 146.732 48.464C147.028 48.672 147.372 48.776 147.764 48.776C148.364 48.776 148.832 48.596 149.168 48.236C149.504 47.876 149.672 47.38 149.672 46.748V46.184H149.624C149.416 46.496 149.132 46.744 148.772 46.928C148.42 47.104 148.036 47.192 147.62 47.192C146.852 47.192 146.192 46.892 145.64 46.292C145.096 45.676 144.824 44.932 144.824 44.06C144.824 43.188 145.096 42.448 145.64 41.84C146.192 41.232 146.852 40.928 147.62 40.928C148.036 40.928 148.42 41.02 148.772 41.204C149.132 41.38 149.416 41.624 149.624 41.936H149.672V41.12H150.728V46.748C150.728 47.692 150.46 48.432 149.924 48.968C149.38 49.512 148.66 49.784 147.764 49.784ZM157.176 47H156.12V46.184H156.072C155.904 46.472 155.644 46.712 155.292 46.904C154.948 47.096 154.588 47.192 154.212 47.192C153.492 47.192 152.936 46.988 152.544 46.58C152.16 46.164 151.968 45.576 151.968 44.816V41.12H153.072V44.744C153.096 45.704 153.58 46.184 154.524 46.184C154.964 46.184 155.332 46.008 155.628 45.656C155.924 45.296 156.072 44.868 156.072 44.372V41.12H157.176V47ZM159.624 38.408V47H158.52V38.408H159.624ZM161.714 45.2C161.714 45.488 161.834 45.728 162.074 45.92C162.322 46.112 162.61 46.208 162.938 46.208C163.402 46.208 163.814 46.036 164.174 45.692C164.542 45.348 164.726 44.944 164.726 44.48C164.382 44.208 163.902 44.072 163.286 44.072C162.838 44.072 162.462 44.18 162.158 44.396C161.862 44.612 161.714 44.88 161.714 45.2ZM163.142 40.928C163.958 40.928 164.602 41.148 165.074 41.588C165.546 42.02 165.782 42.616 165.782 43.376V47H164.726V46.184H164.678C164.222 46.856 163.614 47.192 162.854 47.192C162.206 47.192 161.662 47 161.222 46.616C160.79 46.232 160.574 45.752 160.574 45.176C160.574 44.568 160.802 44.084 161.258 43.724C161.722 43.364 162.338 43.184 163.106 43.184C163.762 43.184 164.302 43.304 164.726 43.544V43.292C164.726 42.908 164.574 42.584 164.27 42.32C163.966 42.048 163.61 41.912 163.202 41.912C162.586 41.912 162.098 42.172 161.738 42.692L160.766 42.08C161.302 41.312 162.094 40.928 163.142 40.928ZM169.238 47.096C168.758 47.096 168.358 46.948 168.038 46.652C167.726 46.356 167.566 45.944 167.558 45.416V42.128H166.526V41.12H167.558V39.32H168.662V41.12H170.102V42.128H168.662V45.056C168.662 45.448 168.738 45.716 168.89 45.86C169.042 45.996 169.214 46.064 169.406 46.064C169.494 46.064 169.578 46.056 169.658 46.04C169.746 46.016 169.826 45.988 169.898 45.956L170.246 46.94C169.958 47.044 169.622 47.096 169.238 47.096ZM173.734 47.192C172.87 47.192 172.158 46.896 171.598 46.304C171.038 45.712 170.758 44.964 170.758 44.06C170.758 43.164 171.03 42.42 171.574 41.828C172.118 41.228 172.814 40.928 173.662 40.928C174.534 40.928 175.226 41.212 175.738 41.78C176.258 42.34 176.518 43.128 176.518 44.144L176.506 44.264H171.886C171.902 44.84 172.094 45.304 172.462 45.656C172.83 46.008 173.27 46.184 173.782 46.184C174.486 46.184 175.038 45.832 175.438 45.128L176.422 45.608C176.158 46.104 175.79 46.492 175.318 46.772C174.854 47.052 174.326 47.192 173.734 47.192ZM171.97 43.352H175.342C175.31 42.944 175.142 42.608 174.838 42.344C174.542 42.072 174.142 41.936 173.638 41.936C173.222 41.936 172.862 42.064 172.558 42.32C172.262 42.576 172.066 42.92 171.97 43.352ZM180.226 46.184C180.77 46.184 181.214 45.988 181.558 45.596C181.918 45.204 182.098 44.692 182.098 44.06C182.098 43.444 181.918 42.936 181.558 42.536C181.206 42.136 180.762 41.936 180.226 41.936C179.698 41.936 179.254 42.136 178.894 42.536C178.534 42.936 178.354 43.444 178.354 44.06C178.354 44.684 178.534 45.192 178.894 45.584C179.254 45.984 179.698 46.184 180.226 46.184ZM180.046 47.192C179.278 47.192 178.618 46.888 178.066 46.28C177.522 45.664 177.25 44.924 177.25 44.06C177.25 43.196 177.522 42.456 178.066 41.84C178.618 41.232 179.278 40.928 180.046 40.928C180.478 40.928 180.87 41.02 181.222 41.204C181.582 41.388 181.858 41.632 182.05 41.936H182.098L182.05 41.12V38.408H183.154V47H182.098V46.184H182.05C181.858 46.488 181.582 46.732 181.222 46.916C180.87 47.1 180.478 47.192 180.046 47.192ZM190.017 46.184C190.545 46.184 190.989 45.984 191.349 45.584C191.709 45.192 191.889 44.684 191.889 44.06C191.889 43.444 191.709 42.936 191.349 42.536C190.989 42.136 190.545 41.936 190.017 41.936C189.481 41.936 189.033 42.136 188.673 42.536C188.321 42.936 188.145 43.444 188.145 44.06C188.145 44.684 188.321 45.196 188.673 45.596C189.033 45.988 189.481 46.184 190.017 46.184ZM190.197 47.192C189.765 47.192 189.369 47.1 189.009 46.916C188.657 46.732 188.385 46.488 188.193 46.184H188.145L188.193 47V49.592H187.089V41.12H188.145V41.936H188.193C188.385 41.632 188.657 41.388 189.009 41.204C189.369 41.02 189.765 40.928 190.197 40.928C190.973 40.928 191.629 41.232 192.165 41.84C192.717 42.456 192.993 43.196 192.993 44.06C192.993 44.932 192.717 45.672 192.165 46.28C191.629 46.888 190.973 47.192 190.197 47.192ZM194.808 45.2C194.808 45.488 194.928 45.728 195.168 45.92C195.416 46.112 195.704 46.208 196.032 46.208C196.496 46.208 196.908 46.036 197.268 45.692C197.636 45.348 197.82 44.944 197.82 44.48C197.476 44.208 196.996 44.072 196.38 44.072C195.932 44.072 195.556 44.18 195.252 44.396C194.956 44.612 194.808 44.88 194.808 45.2ZM196.236 40.928C197.052 40.928 197.696 41.148 198.168 41.588C198.64 42.02 198.876 42.616 198.876 43.376V47H197.82V46.184H197.772C197.316 46.856 196.708 47.192 195.948 47.192C195.3 47.192 194.756 47 194.316 46.616C193.884 46.232 193.668 45.752 193.668 45.176C193.668 44.568 193.896 44.084 194.352 43.724C194.816 43.364 195.432 43.184 196.2 43.184C196.856 43.184 197.396 43.304 197.82 43.544V43.292C197.82 42.908 197.668 42.584 197.364 42.32C197.06 42.048 196.704 41.912 196.296 41.912C195.68 41.912 195.192 42.172 194.832 42.692L193.86 42.08C194.396 41.312 195.188 40.928 196.236 40.928ZM207.009 47.096C206.529 47.096 206.129 46.948 205.809 46.652C205.497 46.356 205.337 45.944 205.329 45.416V42.128H204.297V41.12H205.329V39.32H206.433V41.12H207.873V42.128H206.433V45.056C206.433 45.448 206.509 45.716 206.661 45.86C206.813 45.996 206.985 46.064 207.177 46.064C207.265 46.064 207.349 46.056 207.429 46.04C207.517 46.016 207.597 45.988 207.669 45.956L208.017 46.94C207.729 47.044 207.393 47.096 207.009 47.096ZM200.121 41.12H201.177V42.08H201.225C201.553 41.328 202.229 40.952 203.253 40.952L203.481 40.976V42.128L202.989 42.08C202.477 42.08 202.053 42.24 201.717 42.56C201.389 42.872 201.225 43.272 201.225 43.76V47H200.121V41.12ZM208.992 41.12H210.048V41.936H210.096C210.264 41.648 210.52 41.408 210.864 41.216C211.216 41.024 211.58 40.928 211.956 40.928C212.676 40.928 213.228 41.136 213.612 41.552C214.004 41.96 214.2 42.544 214.2 43.304V47H213.096V43.376C213.072 42.416 212.588 41.936 211.644 41.936C211.204 41.936 210.836 42.116 210.54 42.476C210.244 42.828 210.096 43.252 210.096 43.748V47H208.992V41.12ZM218.136 47.192C217.272 47.192 216.56 46.896 216 46.304C215.44 45.712 215.16 44.964 215.16 44.06C215.16 43.164 215.432 42.42 215.976 41.828C216.52 41.228 217.216 40.928 218.064 40.928C218.936 40.928 219.628 41.212 220.14 41.78C220.66 42.34 220.92 43.128 220.92 44.144L220.908 44.264H216.288C216.304 44.84 216.496 45.304 216.864 45.656C217.232 46.008 217.672 46.184 218.184 46.184C218.888 46.184 219.44 45.832 219.84 45.128L220.824 45.608C220.56 46.104 220.192 46.492 219.72 46.772C219.256 47.052 218.728 47.192 218.136 47.192ZM216.372 43.352H219.744C219.712 42.944 219.544 42.608 219.24 42.344C218.944 42.072 218.544 41.936 218.04 41.936C217.624 41.936 217.264 42.064 216.96 42.32C216.664 42.576 216.468 42.92 216.372 43.352ZM223.034 47H221.93V41.12H222.986V42.08H223.034C223.146 41.768 223.374 41.504 223.718 41.288C224.07 41.064 224.414 40.952 224.75 40.952C225.07 40.952 225.342 41 225.566 41.096L225.23 42.164C225.094 42.108 224.878 42.08 224.582 42.08C224.166 42.08 223.802 42.248 223.49 42.584C223.186 42.92 223.034 43.312 223.034 43.76V47ZM226.747 46.256C226.747 46.48 226.667 46.672 226.507 46.832C226.355 46.992 226.163 47.072 225.931 47.072C225.707 47.072 225.515 46.992 225.355 46.832C225.195 46.672 225.115 46.48 225.115 46.256C225.115 46.024 225.195 45.832 225.355 45.68C225.515 45.52 225.707 45.44 225.931 45.44C226.163 45.44 226.355 45.52 226.507 45.68C226.667 45.832 226.747 46.024 226.747 46.256ZM231.933 39.464V42.488H233.709C234.157 42.488 234.537 42.344 234.849 42.056C235.161 41.76 235.317 41.396 235.317 40.964C235.317 40.564 235.169 40.216 234.873 39.92C234.585 39.616 234.221 39.464 233.781 39.464H231.933ZM231.933 47H230.829V38.408H233.757C234.501 38.408 235.133 38.656 235.653 39.152C236.181 39.64 236.445 40.244 236.445 40.964C236.445 41.556 236.249 42.084 235.857 42.548C235.473 43.004 234.985 43.296 234.393 43.424L234.369 43.46L236.781 46.952V47H235.473L233.157 43.52H231.933V47ZM240.097 47.192C239.233 47.192 238.521 46.896 237.961 46.304C237.401 45.712 237.121 44.964 237.121 44.06C237.121 43.164 237.393 42.42 237.937 41.828C238.481 41.228 239.177 40.928 240.025 40.928C240.897 40.928 241.589 41.212 242.101 41.78C242.621 42.34 242.881 43.128 242.881 44.144L242.869 44.264H238.249C238.265 44.84 238.457 45.304 238.825 45.656C239.193 46.008 239.633 46.184 240.145 46.184C240.849 46.184 241.401 45.832 241.801 45.128L242.785 45.608C242.521 46.104 242.153 46.492 241.681 46.772C241.217 47.052 240.689 47.192 240.097 47.192ZM238.333 43.352H241.705C241.673 42.944 241.505 42.608 241.201 42.344C240.905 42.072 240.505 41.936 240.001 41.936C239.585 41.936 239.225 42.064 238.921 42.32C238.625 42.576 238.429 42.92 238.333 43.352ZM246.486 38.312C246.886 38.312 247.214 38.38 247.47 38.516L247.17 39.488C246.978 39.392 246.762 39.344 246.522 39.344C246.25 39.344 246.026 39.44 245.85 39.632C245.682 39.816 245.598 40.064 245.598 40.376V41.12H247.134V42.128H245.598V47H244.494V42.128H243.39V41.12H244.494V40.268C244.494 39.684 244.678 39.212 245.046 38.852C245.422 38.492 245.902 38.312 246.486 38.312ZM135.968 64H134.864V55.408H136.208L140.384 62.092H140.432L140.384 60.436V55.408H141.488V64H140.336L135.968 56.992H135.92L135.968 58.648V64ZM142.691 61.06C142.691 60.156 142.975 59.408 143.543 58.816C144.119 58.224 144.843 57.928 145.715 57.928C146.587 57.928 147.307 58.224 147.875 58.816C148.451 59.408 148.739 60.156 148.739 61.06C148.739 61.972 148.451 62.72 147.875 63.304C147.307 63.896 146.587 64.192 145.715 64.192C144.843 64.192 144.119 63.896 143.543 63.304C142.975 62.712 142.691 61.964 142.691 61.06ZM143.795 61.06C143.795 61.692 143.979 62.204 144.347 62.596C144.715 62.988 145.171 63.184 145.715 63.184C146.259 63.184 146.715 62.988 147.083 62.596C147.451 62.204 147.635 61.692 147.635 61.06C147.635 60.436 147.451 59.928 147.083 59.536C146.707 59.136 146.251 58.936 145.715 58.936C145.179 58.936 144.723 59.136 144.347 59.536C143.979 59.928 143.795 60.436 143.795 61.06ZM151.278 63.256C151.278 63.48 151.198 63.672 151.038 63.832C150.886 63.992 150.694 64.072 150.462 64.072C150.238 64.072 150.046 63.992 149.886 63.832C149.726 63.672 149.646 63.48 149.646 63.256C149.646 63.024 149.726 62.832 149.886 62.68C150.046 62.52 150.238 62.44 150.462 62.44C150.694 62.44 150.886 62.52 151.038 62.68C151.198 62.832 151.278 63.024 151.278 63.256ZM156.464 60.316V64H155.36V55.408H160.376V56.464H156.464V59.284H159.992V60.316H156.464ZM166.478 62.944V64H161.246V62.896L163.37 60.748C164.082 60.02 164.574 59.476 164.846 59.116C165.118 58.748 165.254 58.364 165.254 57.964C165.254 57.604 165.114 57.296 164.834 57.04C164.554 56.784 164.194 56.656 163.754 56.656C163.378 56.656 163.054 56.768 162.782 56.992C162.51 57.216 162.334 57.488 162.254 57.808L161.246 57.4C161.406 56.896 161.714 56.472 162.17 56.128C162.626 55.776 163.162 55.6 163.778 55.6C164.522 55.6 165.142 55.828 165.638 56.284C166.134 56.74 166.382 57.3 166.382 57.964C166.382 58.756 165.946 59.612 165.074 60.532L162.674 62.944H166.478ZM167.528 59.896C167.528 58.648 167.836 57.62 168.452 56.812C169.068 56.004 169.86 55.6 170.828 55.6C171.796 55.6 172.588 56.008 173.204 56.824C173.82 57.632 174.128 58.656 174.128 59.896C174.128 61.128 173.82 62.156 173.204 62.98C172.588 63.788 171.796 64.192 170.828 64.192C169.86 64.192 169.068 63.788 168.452 62.98C167.836 62.156 167.528 61.128 167.528 59.896ZM173 59.896C173 58.952 172.8 58.176 172.4 57.568C172.008 56.96 171.484 56.656 170.828 56.656C170.172 56.656 169.648 56.96 169.256 57.568C168.856 58.176 168.656 58.952 168.656 59.896C168.656 60.84 168.856 61.62 169.256 62.236C169.648 62.836 170.172 63.136 170.828 63.136C171.484 63.136 172.008 62.832 172.4 62.224C172.8 61.608 173 60.832 173 59.896ZM180.247 62.944V64H175.015V62.896L177.139 60.748C177.851 60.02 178.343 59.476 178.615 59.116C178.887 58.748 179.023 58.364 179.023 57.964C179.023 57.604 178.883 57.296 178.603 57.04C178.323 56.784 177.963 56.656 177.523 56.656C177.147 56.656 176.823 56.768 176.551 56.992C176.279 57.216 176.103 57.488 176.023 57.808L175.015 57.4C175.175 56.896 175.483 56.472 175.939 56.128C176.395 55.776 176.931 55.6 177.547 55.6C178.291 55.6 178.911 55.828 179.407 56.284C179.903 56.74 180.151 57.3 180.151 57.964C180.151 58.756 179.715 59.612 178.843 60.532L176.443 62.944H180.247ZM184.252 55.792V64H183.148V57.16L181.552 57.856L181.132 56.92L183.544 55.792H184.252ZM185.786 59.896C185.786 58.648 186.094 57.62 186.71 56.812C187.326 56.004 188.118 55.6 189.086 55.6C190.054 55.6 190.846 56.008 191.462 56.824C192.078 57.632 192.386 58.656 192.386 59.896C192.386 61.128 192.078 62.156 191.462 62.98C190.846 63.788 190.054 64.192 189.086 64.192C188.118 64.192 187.326 63.788 186.71 62.98C186.094 62.156 185.786 61.128 185.786 59.896ZM191.258 59.896C191.258 58.952 191.058 58.176 190.658 57.568C190.266 56.96 189.742 56.656 189.086 56.656C188.43 56.656 187.906 56.96 187.514 57.568C187.114 58.176 186.914 58.952 186.914 59.896C186.914 60.84 187.114 61.62 187.514 62.236C187.906 62.836 188.43 63.136 189.086 63.136C189.742 63.136 190.266 62.832 190.658 62.224C191.058 61.608 191.258 60.832 191.258 59.896ZM193.438 59.896C193.438 58.648 193.746 57.62 194.362 56.812C194.978 56.004 195.77 55.6 196.738 55.6C197.706 55.6 198.498 56.008 199.114 56.824C199.73 57.632 200.038 58.656 200.038 59.896C200.038 61.128 199.73 62.156 199.114 62.98C198.498 63.788 197.706 64.192 196.738 64.192C195.77 64.192 194.978 63.788 194.362 62.98C193.746 62.156 193.438 61.128 193.438 59.896ZM198.91 59.896C198.91 58.952 198.71 58.176 198.31 57.568C197.918 56.96 197.394 56.656 196.738 56.656C196.082 56.656 195.558 56.96 195.166 57.568C194.766 58.176 194.566 58.952 194.566 59.896C194.566 60.84 194.766 61.62 195.166 62.236C195.558 62.836 196.082 63.136 196.738 63.136C197.394 63.136 197.918 62.832 198.31 62.224C198.71 61.608 198.91 60.832 198.91 59.896ZM206.455 61.672C206.455 62.392 206.187 62.992 205.651 63.472C205.123 63.952 204.467 64.192 203.683 64.192C203.067 64.192 202.511 64.008 202.015 63.64C201.511 63.256 201.171 62.756 200.995 62.14L202.003 61.72C202.131 62.176 202.339 62.528 202.627 62.776C202.923 63.016 203.275 63.136 203.683 63.136C204.131 63.136 204.519 62.996 204.847 62.716C205.167 62.428 205.327 62.08 205.327 61.672C205.327 61.264 205.159 60.92 204.823 60.64C204.495 60.36 204.099 60.22 203.635 60.22H202.927V59.188H203.551C203.991 59.188 204.351 59.068 204.631 58.828C204.911 58.58 205.051 58.26 205.051 57.868C205.051 57.508 204.919 57.216 204.655 56.992C204.391 56.768 204.043 56.656 203.611 56.656C202.915 56.656 202.439 57.012 202.183 57.724L201.163 57.292C201.347 56.788 201.655 56.38 202.087 56.068C202.519 55.756 203.027 55.6 203.611 55.6C204.339 55.6 204.951 55.816 205.447 56.248C205.935 56.664 206.179 57.204 206.179 57.868C206.179 58.66 205.811 59.248 205.075 59.632V59.68C205.507 59.864 205.843 60.132 206.083 60.484C206.331 60.836 206.455 61.232 206.455 61.672ZM212.83 61.672C212.83 62.392 212.562 62.992 212.026 63.472C211.498 63.952 210.842 64.192 210.058 64.192C209.442 64.192 208.886 64.008 208.39 63.64C207.886 63.256 207.546 62.756 207.37 62.14L208.378 61.72C208.506 62.176 208.714 62.528 209.002 62.776C209.298 63.016 209.65 63.136 210.058 63.136C210.506 63.136 210.894 62.996 211.222 62.716C211.542 62.428 211.702 62.08 211.702 61.672C211.702 61.264 211.534 60.92 211.198 60.64C210.87 60.36 210.474 60.22 210.01 60.22H209.302V59.188H209.926C210.366 59.188 210.726 59.068 211.006 58.828C211.286 58.58 211.426 58.26 211.426 57.868C211.426 57.508 211.294 57.216 211.03 56.992C210.766 56.768 210.418 56.656 209.986 56.656C209.29 56.656 208.814 57.012 208.558 57.724L207.538 57.292C207.722 56.788 208.03 56.38 208.462 56.068C208.894 55.756 209.402 55.6 209.986 55.6C210.714 55.6 211.326 55.816 211.822 56.248C212.31 56.664 212.554 57.204 212.554 57.868C212.554 58.66 212.186 59.248 211.45 59.632V59.68C211.882 59.864 212.218 60.132 212.458 60.484C212.706 60.836 212.83 61.232 212.83 61.672ZM219.109 56.92L215.125 64.192L214.141 63.688L217.945 56.848H213.793L213.817 55.792H219.109V56.92Z" fill="#747C87"/>
<line x1="121.5" y1="2.18557e-08" x2="121.5" y2="71" stroke="#747C87"/>
<defs>
<linearGradient id="paint0_linear_1548_630" x1="31.8076" y1="58.3331" x2="82.2222" y2="58.3331" gradientUnits="userSpaceOnUse">
<stop stop-color="#95DC78"/>
<stop offset="1" stop-color="#95DC78" stop-opacity="0.33"/>
</linearGradient>
<linearGradient id="paint1_linear_1548_630" x1="36.2189" y1="26.1109" x2="82.2222" y2="26.1109" gradientUnits="userSpaceOnUse">
<stop stop-color="#FFBB8A" stop-opacity="0.24"/>
<stop offset="1" stop-color="#FFBB8A"/>
</linearGradient>
</defs>
</svg>
